# Face Semantic ICP Wrap export
v -0.39060406 0.43627989 0.62378170
v -0.31978298 0.40505751 0.62548068
v -0.33034623 0.37868746 0.65348458
v -0.38883238 0.36721743 0.65562321
v 0.35865583 0.22418133 0.36250682
v 0.34703727 0.23347866 0.34505432
v 0.30392482 0.29576408 0.36856893
v 0.27932466 0.30015960 0.37500697
v 0.28984642 0.29227674 0.37182626
v 0.27305253 0.33042895 0.38709533
v 0.29217552 0.24689967 0.35709839
v 0.33499988 0.24063961 0.33427199
v 0.33011454 0.24513343 0.35732782
v 0.31083212 0.23868251 0.33538763
v 0.35172941 0.23946981 0.31150964
v 0.32718230 0.25219979 0.36840955
v 0.29052675 0.28042144 0.36749826
v 0.29548277 0.27966025 0.38832784
v 0.36051884 0.24523387 0.36534601
v 0.33849321 0.22697000 0.33573024
v 0.32177641 0.21535196 0.34571148
v 0.20564583 0.23594021 0.34907978
v 0.22576789 0.24161330 0.34885478
v 0.23727449 0.24074578 0.33016602
v 0.24194608 0.21670640 0.33762989
v 0.24455423 0.25193825 0.36430196
v 0.24653386 0.25062839 0.35140406
v 0.27438129 0.23395624 0.36523595
v 0.22090492 0.25355745 0.34824968
v 0.32262186 0.19774493 0.31550661
v 0.32503271 0.23151132 0.34373700
v 0.24363645 0.23751769 0.31707906
v 0.25413541 0.19956189 0.33331758
v 0.30390016 0.24623073 0.36141911
v 0.29453975 0.25187683 0.32734946
v 0.27568219 0.23592846 0.33905238
v 0.29759360 0.21066590 0.33906714
v 0.23762260 0.29506403 0.39178563
v 0.24511454 0.30232585 0.39051224
v 0.24614749 0.33930852 0.39792602
v 0.35050011 0.27621464 0.35666787
v 0.34502257 0.30680143 0.33318727
v 0.34730455 0.27171286 0.35079342
v 0.19611187 0.21993158 0.33112627
v 0.19525868 0.21948716 0.36813212
v 0.19294931 0.26404817 0.38284103
v 0.21781130 0.28714130 0.38061404
v 0.20272460 0.24686464 0.34253725
v 0.25973718 0.28360766 0.38104576
v 0.25185398 0.24983108 0.38676083
v 0.22680404 0.21927564 0.35415781
v 0.20513822 0.23834142 0.36035891
v 0.23468885 0.23655984 0.36187590
v 0.20619188 0.28592273 0.40208989
v 0.20171875 0.30456719 0.39216308
v 0.21151763 0.23821847 0.37050894
v 0.19724554 0.24593869 0.39374876
v 0.21365132 0.24193454 0.35381188
v 0.21666812 0.23879587 0.35024800
v 0.20633070 0.22920549 0.35113262
v 0.21115720 0.21475969 0.36038144
v 0.21515209 0.23569376 0.36037245
v 0.21663768 0.24312138 0.35675445
v 0.20105462 0.23076368 0.35847607
v 0.27613290 0.20251381 0.36771635
v 0.26403300 0.21608145 0.37111827
v 0.23222274 0.20715648 0.34072393
v 0.21057604 0.23031643 0.33874146
v 0.32361843 0.26479886 0.33506988
v 0.34087822 0.25798423 0.32060665
v 0.31097820 0.26016150 0.33946332
v 0.31377049 0.29456678 0.35289781
v 0.29983791 0.28018073 0.36751279
v 0.30316455 0.26095539 0.35579829
v 0.32103629 0.29981817 0.31896261
v 0.25335582 0.20840848 0.36030130
v 0.21085512 0.21279785 0.34075309
v 0.21086619 0.22854347 0.33612940
v 0.20609858 0.20492031 0.35633306
v 0.24025199 0.27916531 0.36610307
v 0.21751448 0.25081153 0.38821532
v 0.24769233 0.26199500 0.38050927
v 0.23696260 0.23945549 0.31412686
v 0.24414698 0.23645382 0.32931648
v 0.21461675 0.28571887 0.34689424
v 0.25754676 0.33435748 0.36969527
v 0.22439383 0.31617163 0.35339856
v 0.29418634 0.24746286 0.34979631
v 0.25698482 0.28921461 0.35939101
v 0.25929296 0.28604804 0.36072834
v 0.32585012 0.24707427 0.30284025
v 0.23588474 0.22883389 0.37535800
v 0.24826639 0.23783063 0.34698684
v 0.22300681 0.21296247 0.35731356
v 0.22366162 0.22252846 0.37082218
v 0.28371963 0.27677407 0.38829435
v 0.22353536 0.27458388 0.40422837
v 0.23317021 0.24726551 0.35234681
v 0.23743613 0.30079190 0.39166034
v 0.24370285 0.30798901 0.37221743
v 0.25255819 0.29567012 0.39988417
v 0.23692346 0.28816416 0.39707228
v 0.31201579 0.26007864 0.35254767
v 0.33222019 0.19721743 0.34490952
v 0.29811221 0.29791192 0.35688064
v 0.33343506 0.23223143 0.35081083
v 0.33239716 0.21899651 0.34043572
v 0.35381173 0.24787257 0.35056972
v 0.34045007 0.23816792 0.36466563
v 0.36720433 0.27493438 0.35843727
v 0.23113696 0.28952344 0.37713645
v 0.22889900 0.30014136 0.40327926
v 0.25330648 0.21357187 0.37465322
v 0.21396784 0.26310007 0.37778724
v 0.23178951 0.27774290 0.38880550
v 0.32804405 0.35909207 0.28099547
v 0.33366042 0.29857658 0.24833996
v 0.26066294 0.29118917 0.31884932
v 0.19740620 0.21691651 0.32794819
v 0.29866628 0.21944414 0.36480801
v 0.29220582 0.39692040 0.33282112
v 0.27098024 0.49039340 0.26179099
v 0.30776458 0.27966403 0.34128540
v 0.31385949 0.24762966 0.34723505
v 0.34668260 0.26564103 0.31528677
v 0.24296157 0.30178413 0.35015397
v 0.23908429 0.31734482 0.35617955
v 0.20910371 0.20431612 0.35875609
v 0.31052104 0.28905195 0.38434267
v 0.28097445 0.28394704 0.37223165
v -0.54305563 -0.00422797 0.58749250
v -0.51298291 -0.00438197 0.59944294
v -0.48020092 -0.01925925 0.57996092
v -0.51052050 -0.05162108 0.58759100
v -0.52774165 -0.04779391 0.57330982
v -0.50280248 -0.05078597 0.58012735
v -0.53410889 0.00036046 0.57295894
v -0.54170413 -0.02955456 0.59181412
v -0.53994196 -0.02019616 0.60419438
v 0.31345078 0.31463301 0.36573879
v -0.48910464 -0.06296262 0.59110201
v -0.48484527 -0.06308012 0.59582990
v -0.51370878 -0.03653879 0.62074844
v -0.48584612 -0.06474651 0.61923554
v -0.55400107 -0.07317983 0.61265471
v -0.55929510 -0.07564053 0.61449216
v -0.58285293 -0.06815929 0.59132436
v -0.56944970 -0.04882426 0.63099360
v -0.54613954 -0.06535745 0.64935634
v -0.52118380 -0.04746330 0.64693985
v -0.52854166 -0.03836580 0.59890366
v -0.56698364 -0.05431428 0.59714691
v -0.48552004 -0.02767640 0.60523581
v -0.49286701 -0.01551988 0.58742256
v 0.27310696 0.29734200 0.36983554
v 0.26479769 0.28972428 0.36273508
v 0.28581090 0.27385180 0.32275820
v 0.33758867 0.26518206 0.36857516
v 0.34328786 0.23526945 0.38933129
v 0.33068148 0.25164607 0.33657399
v 0.25837694 0.28017960 0.38474853
v 0.28801813 0.29445075 0.35716315
v 0.24375537 0.24227570 0.35516313
v -0.11249229 0.38778586 0.57951831
v -0.09527474 0.30175990 0.58218493
v -0.12380182 0.30137086 0.59253318
v -0.46471382 0.70415034 0.52825218
v -0.51608611 0.70516466 0.49300449
v -0.49800709 0.74262197 0.45781269
v -0.42686010 0.72729294 0.49793746
v -0.37888601 0.85550031 0.35800336
v -0.39543768 0.91805693 0.30462169
v -0.23854106 0.92775585 0.24299844
v -0.49188312 0.18914061 0.52945595
v -0.44870324 0.16382299 0.54588298
v -0.45038420 0.14417185 0.52984568
v -0.54882917 0.45996619 0.55982061
v -0.56864892 0.55298425 0.53386596
v -0.42482461 0.14826487 0.54743375
v 0.30198592 0.25788243 0.21739711
v -0.18769843 0.52600166 0.58696912
v -0.19035551 0.46150239 0.58943566
v -0.53933040 0.41967205 0.57680280
v -0.54937465 0.36046889 0.56615514
v -0.60258762 0.33335140 0.55855153
v -0.11505504 0.25739047 0.61139658
v -0.10533117 0.24363971 0.61339635
v -0.55422996 0.63595194 0.51528442
v -0.13232648 0.42758686 0.56323800
v -0.14641676 0.39283204 0.59388949
v -0.51814931 0.18519769 0.54530373
v -0.49547716 0.21252638 0.53394626
v -0.52983655 0.18851558 0.53237822
v -0.56320763 0.19828361 0.53503739
v -0.55177820 0.25184092 0.56285954
v -0.51880022 0.23540145 0.54176045
v -0.39732757 0.58648206 0.61074677
v -0.32451815 0.57265376 0.59997809
v -0.39106612 0.85472944 0.45454671
v -0.55651077 0.31496064 0.54749496
v -0.54225782 0.33324566 0.55411065
v -0.53225103 0.28208013 0.55468970
v -0.40024455 0.13371173 0.54880223
v 0.16612025 0.30916932 0.43713281
v 0.12687136 0.24145434 0.43295791
v 0.12128489 0.24477713 0.49200675
v 0.10785842 0.41053832 0.46734159
v 0.18275791 0.32905590 0.41495651
v -0.57438637 0.18182003 0.54036429
v -0.54803359 0.16723545 0.56486931
v -0.51795964 -0.00300575 0.63883655
v -0.51721311 -0.00104596 0.59151439
v -0.52229005 -0.03628457 0.59684351
v -0.52419262 -0.05040110 0.60738471
v -0.51937230 -0.03843988 0.63091184
v -0.51767330 -0.05894160 0.60480608
v -0.51009323 -0.03452363 0.57905435
v -0.50330510 -0.00033859 0.56106319
v -0.58553620 -0.08665943 0.62016446
v -0.61583760 -0.06565689 0.62288257
v -0.59611913 -0.05089759 0.63503624
v -0.57030747 -0.07621939 0.63522179
v -0.51563965 0.00232274 0.58313945
v -0.55439897 -0.04758383 0.57923517
v -0.57199843 -0.03641039 0.60736296
v -0.55240811 -0.02764420 0.58454827
v -0.53389353 -0.00421446 0.59463671
v -0.51420894 -0.04421941 0.60663633
v 0.28578683 0.23228987 0.35930548
v -0.06809889 0.53257213 0.54218792
v -0.00232318 0.64888339 0.50777995
v 0.09611223 0.54505691 0.46649971
v 0.11183845 0.62304706 0.43905376
v 0.19299540 0.55806569 0.42768136
v 0.24214842 0.42157137 0.35717925
v -0.29383914 0.23532739 0.61923741
v -0.33292842 0.23840247 0.62018024
v -0.33232629 0.22970852 0.61438301
v -0.30563807 0.22254700 0.62341807
v -0.30605358 0.26172678 0.63043235
v -0.30918042 0.23272627 0.64573292
v -0.29494326 0.24573565 0.61176761
v -0.40160337 0.23994452 0.56655263
v -0.40272339 0.24312418 0.57842039
v -0.40764529 0.24067536 0.57532906
v -0.38622658 0.21788282 0.58302481
v -0.40203076 0.23825595 0.51132160
v -0.38198322 0.20612784 0.52848526
v -0.36928279 0.23466498 0.54979129
v -0.41489544 0.25591181 0.55791600
v -0.41893181 0.22932238 0.53130326
v -0.38569802 0.24235376 0.49886484
v -0.39416760 0.23038420 0.52666381
v -0.39829481 0.22912470 0.55122060
v -0.40540967 0.23123893 0.54911107
v -0.36327845 0.21493720 0.57966574
v -0.37678664 0.22268393 0.59569708
v -0.37171479 0.21806084 0.58206065
v -0.38973625 0.20996260 0.57788348
v -0.36376707 0.19898338 0.58796443
v -0.34374163 0.21834921 0.60793121
v -0.36589011 0.20546228 0.61528089
v -0.40613736 0.20719528 0.58158237
v -0.41342969 0.21784736 0.56718518
v -0.30577270 0.24675229 0.60132653
v -0.28831350 0.23456239 0.61474701
v -0.27528189 0.24346305 0.61581382
v -0.26309242 0.25732013 0.62338273
v -0.23347822 0.22186445 0.59717408
v -0.22899243 0.23642144 0.62162450
v -0.23869511 0.26387115 0.59671161
v -0.22721791 0.23300836 0.59545010
v -0.20197445 0.19365644 0.59559179
v -0.31518999 0.23892068 0.61988957
v -0.29839592 0.25603589 0.63269122
v -0.28731754 0.24068496 0.61118463
v -0.29224632 0.24956517 0.61931281
v -0.30021303 0.22864572 0.62402294
v -0.30979425 0.23231307 0.61761805
v -0.30142382 0.23875393 0.59961065
v -0.32183267 0.23825028 0.61065297
v -0.32506784 0.23079591 0.62140772
v -0.33870802 0.23359877 0.61994591
v -0.34826697 0.20492541 0.60074725
v -0.28051306 0.22693436 0.62203816
v -0.27863203 0.22419250 0.60636955
v -0.25426940 0.21910805 0.62989253
v -0.28146147 0.22395643 0.61175315
v -0.26608855 0.23248269 0.63059686
v -0.22672019 0.21569281 0.61331190
v -0.28784454 0.20816495 0.60782839
v -0.29694986 0.18528445 0.62043070
v -0.30902232 0.20825363 0.61266115
v -0.30904355 0.24289084 0.61760343
v -0.31622369 0.20496405 0.61654578
v -0.37660061 0.22389904 0.58404536
v -0.36343761 0.23257592 0.61533428
v -0.35282560 0.22092987 0.61179865
v -0.37069730 0.24359641 0.61146946
v -0.33241327 0.24492807 0.60527964
v -0.33153008 0.21422016 0.60199999
v -0.33414643 0.22630980 0.59087304
v -0.31986937 0.21801190 0.57755994
v -0.31963165 0.25715496 0.59758420
v -0.38740660 0.20804697 0.56290870
v -0.35513404 0.22265785 0.55038105
v -0.39000109 0.19561959 0.56848781
v -0.37418049 0.23802807 0.56031356
v -0.40451336 0.22240919 0.55419220
v -0.36725306 0.26049232 0.61587427
v -0.33224497 0.29307012 0.63103055
v -0.35680201 0.26564780 0.64042662
v -0.32641460 0.25646505 0.64566066
v -0.32081911 0.24207060 0.64307383
v -0.33401616 0.24795192 0.62539549
v -0.31792218 0.25809966 0.63224749
v -0.35447686 0.24256288 0.63067645
v -0.35397057 0.22691557 0.62001092
v -0.28622831 0.27302618 0.62306121
v -0.31473351 0.27587414 0.61846362
v -0.28744059 0.24492809 0.60927124
v -0.26872891 0.24808715 0.61368501
v -0.25217127 0.28947621 0.56625649
v -0.28696634 0.27994814 0.60476945
v -0.22875976 0.26090395 0.58997024
v -0.24753598 0.27090986 0.58065728
v -0.27840723 0.23814582 0.58238867
v -0.30470666 0.25014405 0.62030848
v -0.30627258 0.22615942 0.61336099
v -0.33758181 0.23905689 0.61903773
v -0.32156270 0.24475862 0.58578473
v -0.26981298 0.24227044 0.60150000
v -0.27470518 0.25938570 0.60460704
v -0.28243351 0.23331133 0.61608020
v -0.26909814 0.27649034 0.60234321
v -0.28040018 0.24384438 0.61855308
v -0.27773905 0.24467724 0.62945718
v -0.25005195 0.24653613 0.58966759
v -0.26523730 0.24227277 0.64684987
v -0.27423346 0.25762513 0.59848634
v -0.27314971 0.26466327 0.61898209
v -0.27170701 0.28526890 0.62403347
v -0.26865856 0.23923790 0.61103450
v -0.23951617 0.23813838 0.61493261
v -0.26813777 0.25485373 0.61206841
v -0.24467171 0.26653154 0.61169585
v -0.23617578 0.27902433 0.60817312
v -0.23529599 0.29261643 0.61213591
v -0.23999490 0.22352152 0.61834706
v -0.28349398 0.26181138 0.61226661
v -0.28636573 0.26667259 0.61091843
v -0.27645899 0.26075031 0.61260673
v -0.26655954 0.25446609 0.61570852
v -0.27229825 0.23662187 0.63769546
v -0.30077033 0.27685847 0.63192096
v -0.27677716 0.25600332 0.63822687
v -0.29193782 0.25297278 0.64590082
v -0.29469858 0.26082493 0.64074126
v -0.27830439 0.24750083 0.63204789
v -0.27638319 0.26137578 0.63419759
v -0.29549934 0.24901943 0.61923990
v -0.28577692 0.26662555 0.62370341
v -0.30220050 0.25936708 0.61295298
v -0.33212466 0.23835814 0.63053592
v -0.31632320 0.24764251 0.64062356
v -0.34935788 0.24769615 0.62947250
v -0.36236873 0.30844394 0.62779530
v -0.32038226 0.27958313 0.60933605
v -0.33474858 0.28811969 0.55749932
v -0.35363168 0.27110418 0.58871757
v -0.36168830 0.27869193 0.58390556
v -0.40623302 0.23633225 0.53198719
v -0.39437867 0.22219641 0.55549910
v -0.35790422 0.24830703 0.53551625
v -0.40867282 0.25133829 0.50901350
v -0.40254139 0.22563298 0.52108826
v -0.42390558 0.21271420 0.54849899
v -0.38615436 0.25339684 0.55546891
v -0.38810856 0.27432073 0.52236152
v -0.38202507 0.27149354 0.51081836
v -0.39033538 0.22926893 0.55450715
v -0.38174889 0.21743904 0.55841665
v -0.32152294 0.26604304 0.60300131
v -0.30998886 0.27848478 0.57469578
v -0.41713514 0.21904664 0.55850515
v -0.42851180 0.21417707 0.56027182
v -0.44088733 0.23925629 0.53442455
v -0.41753590 0.23911497 0.56338952
v -0.39094254 0.22082860 0.60147316
v -0.40059025 0.22956125 0.56496960
v -0.37067617 0.25409831 0.58400127
v -0.36395275 0.25898486 0.61743095
v -0.41367895 0.24959565 0.58995577
v -0.42002341 0.22969679 0.57259846
v -0.43137864 0.25213854 0.59467949
v -0.41737994 0.25988973 0.56338772
v -0.40092538 0.22620158 0.52623020
v -0.40768856 0.19221048 0.52379465
v -0.39849678 0.24378922 0.53547642
v -0.40453046 0.23248116 0.55973493
v -0.43903945 0.21641551 0.52875811
v -0.42878659 0.23994170 0.53333968
v -0.42469750 0.21667871 0.53192303
v -0.44345307 0.23121376 0.54480286
v -0.43340452 0.24404350 0.54302645
v -0.43800764 0.24920334 0.55902575
v -0.42264013 0.21118072 0.53044654
v -0.40962258 0.22031137 0.55120116
v -0.42033324 0.20613905 0.54225905
v -0.39741234 0.21980814 0.58339873
v -0.40132142 0.20406461 0.56691425
v -0.42617283 0.22189627 0.52280512
v -0.40299357 0.20435066 0.55062839
v -0.60879414 -0.02248606 0.50342825
v -0.60294099 -0.03108944 0.49462067
v -0.58918620 -0.02294973 0.49429438
v -0.22827618 0.23462001 0.63079231
v -0.24333177 0.21533516 0.62370678
v -0.26192103 0.21288084 0.59388450
v -0.60495570 -0.08661535 0.52104322
v -0.60751688 -0.07724103 0.50423470
v -0.22869712 0.25477973 0.60703565
v -0.23942130 0.29203626 0.61333233
v -0.21336885 0.23583417 0.60885081
v -0.19843734 0.28059709 0.60793446
v -0.58688692 -0.03513753 0.54925489
v -0.61769965 -0.02219520 0.54286736
v -0.61412071 -0.00674218 0.51435365
v -0.46549409 0.23465554 0.53038563
v -0.43877920 0.21723837 0.52146212
v -0.43289811 0.23239932 0.53466816
v -0.43927542 0.23939863 0.50224520
v -0.45940605 0.18482600 0.53320056
v -0.43582931 0.19441225 0.56479844
v -0.42655373 0.18001405 0.54962528
v -0.41705526 0.18612084 0.54372421
v -0.42030193 0.19985038 0.53827216
v -0.27888573 0.35237986 0.65819065
v -0.31380741 0.33534322 0.64891295
v -0.33397373 0.33012727 0.66160927
v -0.33942267 0.35478310 0.66375535
v -0.27643881 0.39236237 0.65247646
v -0.24099134 0.38832635 0.65636582
v -0.27967906 0.32279000 0.66071828
v -0.28726221 0.32377520 0.64871124
v -0.20724794 0.30388867 0.61602237
v -0.24193072 0.29362523 0.62150659
v -0.22288833 0.30389627 0.64164723
v -0.18046582 0.33412432 0.64567380
v -0.25069877 0.30788733 0.65969604
v -0.26547052 0.30923417 0.63969077
v -0.43327264 0.33851475 0.57922620
v -0.43559083 0.28651397 0.56105599
v -0.46065842 0.29554588 0.57761582
v -0.45965698 0.28180589 0.53961227
v -0.39024092 0.34713137 0.64974110
v -0.39642150 0.31947232 0.63916734
v -0.41362824 0.25430495 0.57284964
v -0.42072238 0.27443436 0.54462513
v -0.40445762 0.27517180 0.58055496
v -0.32169514 0.27989379 0.62416203
v -0.30919627 0.29572631 0.62729821
v -0.32600100 0.26452152 0.63802594
v -0.27752711 0.26524004 0.62619474
v -0.26989753 0.27863871 0.61772484
v -0.43127752 0.28109516 0.56446020
v -0.41654289 0.27616417 0.57064734
v -0.29859163 0.63965360 0.60163334
v -0.21885074 0.62896955 0.57589942
v -0.25871280 0.54562630 0.59863191
v -0.30391174 0.30275727 0.64534898
v -0.27948139 0.28252780 0.63697194
v -0.25971116 0.28934128 0.64223335
v -0.25285147 0.28000065 0.65074694
v 0.24950256 0.26301067 0.35289881
v 0.32131505 0.25579552 0.36155188
v 0.36029387 0.23398018 0.35695214
v 0.33038737 0.22769998 0.34320146
v 0.26068564 0.29773578 0.37032412
v 0.24564248 0.24580043 0.35909049
v 0.23268639 0.21889573 0.34002598
v 0.30385255 0.31669194 0.34414910
v 0.22325578 0.23783013 0.35867691
v 0.30230150 0.27644782 0.39722979
v 0.23161078 0.24641528 0.38541446
v 0.25138326 0.28049215 0.39257153
v 0.18118611 0.25115292 0.37924841
v 0.16724599 0.22359904 0.38332448
v 0.25720690 0.23291132 0.35029946
v 0.27695058 0.26864161 0.33609694
v 0.22422164 0.21759770 0.32041197
v 0.28142822 0.21881912 0.36223197
v 0.25895222 0.22147051 0.36191819
v 0.25109165 0.28449920 0.33636995
v 0.24735647 0.24347964 0.35314361
v 0.25258013 0.28122250 0.34007842
v 0.23306088 0.24650873 0.33007964
v -0.01420462 0.19833651 0.57625030
v -0.39843544 -0.06827636 0.56385483
v -0.42839010 -0.05095256 0.57467922
v -0.43482115 -0.02793276 0.58230333
v -0.45442195 -0.00767238 0.58569317
v -0.45991798 -0.01937216 0.60653146
v -0.47547061 -0.02391727 0.61917770
v -0.45435381 -0.02402089 0.62290456
v -0.46264235 -0.06155658 0.61644347
v -0.43595966 -0.03516353 0.60517095
v -0.63637638 -0.07781468 0.46480617
v -0.63747894 -0.07106486 0.48896601
v -0.60764454 -0.05569448 0.50723307
v -0.45972164 -0.05883531 0.61236259
v -0.60368605 -0.07129054 0.56921153
v -0.62992412 -0.07559921 0.54409536
v -0.59468556 -0.06803084 0.54861629
v -0.59037112 -0.08187632 0.56898009
v -0.45328383 -0.06929175 0.57861866
v -0.51473940 -0.04243138 0.60108013
v -0.64135449 -0.05047891 0.52883835
v -0.65264205 -0.06994046 0.54617379
v -0.60241766 -0.02123219 0.52487582
v -0.58666925 -0.06235723 0.51496483
v -0.60362718 -0.04709453 0.56164866
v -0.61938741 -0.04716372 0.48511919
v -0.59623809 -0.08616562 0.49800588
v -0.60435779 -0.04081730 0.45362677
v -0.61891495 -0.02327755 0.51395002
v -0.48919830 -0.05943604 0.63862320
v -0.56634850 -0.08316427 0.60254730
v -0.52800200 0.16661237 0.56165994
v -0.47263337 0.15202578 0.55969368
v -0.52602059 0.14880318 0.55253835
v -0.47687181 -0.03797630 0.66363837
v -0.54185875 -0.02858154 0.65769100
v -0.52951081 -0.02330311 0.64208760
v -0.54009330 0.27560077 0.54027306
v -0.55529339 -0.09835427 0.55086075
v -0.57398254 -0.09735103 0.56935070
v -0.58120772 -0.07660033 0.58738211
v -0.52189983 -0.19264163 0.58543919
v -0.43548997 -0.18806040 0.52171535
v -0.44374499 -0.16783649 0.53042780
v -0.45592722 -0.19072790 0.55189163
v -0.44446087 -0.19181373 0.57439214
v -0.42138388 -0.20273815 0.56648961
v -0.46225349 -0.14526646 0.53529597
v -0.46205172 -0.15033353 0.53167892
v -0.45989669 -0.22149059 0.57249343
v -0.46459909 -0.22606693 0.59639174
v -0.45256090 -0.07857960 0.59399154
v -0.50802812 -0.09613773 0.59829301
v -0.52115391 -0.10731354 0.54558632
v -0.52017128 -0.08454689 0.58577262
v -0.50469000 -0.08202418 0.57859116
v -0.52002277 -0.07366212 0.58074895
v -0.50357030 -0.06388955 0.58044953
v -0.53499995 -0.05600468 0.57288191
v -0.51706015 -0.04926189 0.59484950
v -0.53007686 -0.06281868 0.58167751
v -0.58781007 0.10745129 0.60958108
v -0.49127103 -0.13733485 0.59287376
v -0.53060416 -0.16062457 0.58856051
v -0.54247901 -0.11817960 0.58354238
v -0.48921990 -0.16280714 0.57413054
v -0.53041422 -0.09345750 0.57365420
v -0.49638907 -0.18752909 0.57359298
v -0.45786751 -0.19577967 0.60720637
v -0.43250154 -0.12786831 0.60214074
v -0.41589400 -0.13156976 0.60507524
v -0.40272420 -0.18960586 0.59862431
v -0.41044978 -0.21024461 0.58076036
v -0.39718597 -0.22065467 0.58795545
v -0.47533528 -0.19853356 0.59143566
v -0.43340833 -0.21690899 0.58623700
v -0.46277499 -0.21106648 0.58036934
v -0.41277752 -0.21184968 0.57060718
v -0.40845494 -0.15149777 0.55956292
v -0.43684282 -0.21862938 0.58207617
v -0.41430512 -0.19499365 0.55626697
v -0.41782615 -0.17640906 0.58954111
v -0.50074854 -0.20279603 0.59360877
v -0.66486022 0.08374020 0.33002309
v -0.60817508 0.03539410 0.63663257
v -0.62447708 0.03398293 0.60652973
v -0.39045015 -0.23550271 0.55212524
v -0.39704107 -0.21625030 0.57315372
v -0.45436275 -0.19694774 0.54124249
v -0.44466103 -0.24792659 0.50460583
v -0.41473904 -0.20502715 0.54854444
v -0.45388999 -0.18646958 0.55472793
v -0.41937085 -0.21338877 0.54955243
v -0.43942815 -0.20436391 0.55873140
v -0.42446741 -0.24420075 0.57943023
v -0.48624296 -0.24499901 0.55605429
v -0.53912374 -0.10460672 0.56999423
v -0.55562522 -0.08754476 0.57496228
v -0.55235092 -0.07218148 0.58206095
v -0.55893297 -0.04130486 0.64081271
v -0.55417369 -0.08038508 0.60969607
v -0.56852712 -0.03931492 0.63625803
v -0.56096888 -0.04188040 0.63384635
v -0.59219766 -0.04630865 0.65498714
v -0.55823335 -0.03922787 0.62280785
v -0.60156807 -0.07897168 0.63311931
v -0.61610992 -0.05873678 0.64265765
v -0.59400295 -0.00242596 0.64431493
v -0.61728936 -0.02060772 0.66147280
v -0.54580258 -0.00349569 0.63533548
v -0.53171895 -0.01653024 0.64751490
v -0.48336851 -0.22004201 0.53860217
v -0.48565675 -0.19473849 0.52911249
v -0.45730644 -0.25657037 0.49309250
v -0.44561171 -0.21855463 0.50374308
v -0.51954565 -0.22558254 0.54593562
v -0.49065320 -0.23255113 0.56647597
v -0.05993159 0.67606679 0.51022393
v -0.11389955 0.59582523 0.56033272
v -0.16997304 0.66902312 0.54959517
v -0.11663651 0.68803853 0.53749492
v -0.14771360 0.90276081 0.29311877
v -0.08199319 0.88382690 0.32643847
v 0.24112524 0.27170564 0.36375668
v 0.26503370 0.31148451 0.36095396
v 0.22409571 0.39933241 0.38923036
v 0.28221557 0.22831851 0.33531013
v 0.29836439 0.22203526 0.34738319
v 0.26862644 0.23122755 0.34893851
v 0.26686406 0.24120100 0.35252686
v 0.28284516 0.25543056 0.36392538
v 0.23094597 0.22864904 0.34373981
v 0.25964330 0.23426285 0.32289388
v 0.30494360 0.24242010 0.33559423
v 0.29387895 0.24418152 0.32979171
v 0.24974411 0.27277756 0.32008122
v 0.28021890 0.58155070 0.26288287
v 0.24815566 0.29757458 0.38500182
v 0.25860167 0.29519344 0.36586855
v 0.07202555 0.73157159 0.40377396
v -0.07544469 0.78172987 0.42794163
v 0.00755525 0.80883195 0.35824956
v 0.25456712 0.53435022 0.37044473
v 0.24561005 0.62420185 0.34883472
v 0.16016208 0.68211642 0.40722975
v 0.21364928 0.75042770 0.29780986
v 0.10250097 0.82917799 0.30743175
v 0.20512917 0.81552890 0.26291234
v 0.10008573 0.86844358 0.24994492
v 0.03880310 0.82653030 0.33803174
v -0.01679878 0.84777374 0.38654952
v 0.00963254 0.86651392 0.29311094
v -0.03846708 0.86318849 0.32722550
v 0.12148955 0.69086352 0.42202845
v -0.63252661 0.67447256 0.41342370
v -0.63948970 0.71212182 0.32541591
v -0.00547758 0.25315542 0.55744007
v 0.03252998 0.20995570 0.52135826
v -0.52498449 0.85251992 0.23815721
v -0.03403705 0.32576019 0.52850013
v 0.05847789 0.30405163 0.52442493
v 0.05671691 0.37398635 0.50179702
v -0.28085888 0.51258290 0.59938339
v -0.27655838 0.69009753 0.56453757
v -0.08108577 0.87279987 0.38690126
v -0.16967696 0.29189885 0.62335234
v -0.48475487 0.10932010 0.56276183
v -0.48958378 0.10320557 0.58351823
v -0.43589080 0.10201468 0.58617520
v -0.50633287 0.08417326 0.55989920
v -0.50462349 0.05870737 0.57665954
v -0.41806103 -0.03042081 0.60480846
v -0.43886594 0.02086168 0.58288375
v -0.42907025 0.04618344 0.57417538
v -0.44516904 0.06554420 0.56649637
v -0.40377121 0.08132041 0.57145505
v -0.46664970 0.01761667 0.62388215
v -0.48579109 -0.01220253 0.64093507
v -0.55873762 0.02115297 0.61691001
v -0.53829817 0.06001693 0.57766688
v -0.45013182 0.11856193 0.56733184
v -0.41775084 0.10723796 0.57183704
v -0.39313124 0.00532159 0.60941614
v -0.60186179 0.16441130 0.45763503
v -0.60757172 0.15996128 0.43575660
v -0.59273202 0.12059608 0.40431005
v -0.63365015 0.48807645 0.46764667
v -0.65727428 0.54829308 0.45406034
v -0.41034977 0.18846458 0.55065125
v -0.46685642 0.20155847 0.54976234
v -0.46208271 0.30245919 0.52818596
v -0.46428138 0.27636461 0.54317446
v -0.53743936 0.26125323 0.53879429
v -0.45295086 0.32262792 0.57818468
v -0.47090038 0.20822501 0.52654249
v -0.61698705 0.12948368 0.39194703
v -0.46463018 0.21863310 0.52288163
v -0.46426325 0.24212568 0.51995489
v -0.48964219 0.26215288 0.53317982
v -0.59463958 0.78453078 0.33209214
v -0.64931019 0.76712276 0.28671060
v -0.44141407 0.40601521 0.64107666
v -0.46196379 0.35292668 0.63493462
v -0.15117664 0.57467387 0.56995425
v -0.11983338 0.51347901 0.56767980
v -0.27687714 0.40235051 0.63605358
v -0.23551480 0.42772084 0.63247551
v -0.21361934 0.36368491 0.62734358
v -0.07912312 0.44349409 0.56797137
v -0.06516736 0.36810082 0.57673308
v -0.05118422 0.27774598 0.57528161
v -0.16957080 0.77899125 0.50941746
v -0.17678380 0.88137680 0.36879090
v -0.20186222 0.87548008 0.42800239
v -0.15457858 0.84596828 0.40402111
v -0.26244909 0.82741508 0.45170637
v -0.26735365 0.76969008 0.48123531
v -0.29737812 0.72299755 0.52557654
v -0.32307636 0.69256287 0.55845504
v -0.35804630 0.62127998 0.57342871
v -0.51950647 0.01052355 0.58373576
v -0.52988676 -0.00248098 0.55421436
v -0.53598169 -0.06561835 0.58430479
v -0.52988130 -0.05276945 0.56859195
v -0.53234458 -0.02449290 0.55371744
v -0.65276199 0.38433555 0.52108609
v -0.65340787 0.36234525 0.49269174
v -0.63475533 0.34642142 0.49231779
v -0.62661204 0.62116006 0.44807500
v -0.58594255 0.17380794 0.47111604
v -0.58655395 0.19740664 0.43981448
v -0.60405650 0.21554409 0.48929745
v -0.59444947 0.20157578 0.52214294
v -0.59709166 0.21237698 0.49395275
v -0.62372955 0.23532068 0.47514140
v -0.59262657 0.83452781 0.22642831
v -0.55618497 0.81865705 0.26231906
v -0.62321630 0.28926330 0.51027670
v -0.61753288 0.26075852 0.51224192
v -0.63367720 0.07891140 0.35765332
v -0.63977309 0.11583949 0.37498447
v -0.61694139 0.19108897 0.52463334
v -0.60588214 0.16572290 0.52543328
v -0.58046157 -0.02776167 0.49197881
v -0.59821395 -0.01509161 0.51735613
v -0.62413366 -0.05229546 0.50923144
v -0.63081852 -0.04826642 0.52415076
v -0.58920814 -0.06055684 0.50236017
v -0.57004861 -0.04457476 0.50279333
v -0.57923100 0.00009757 0.51672114
v -0.61487786 -0.07502060 0.59512612
v -0.57816611 -0.01078580 0.50800031
v -0.60155439 -0.01168828 0.51810684
v -0.61793187 -0.03694193 0.54393277
v -0.63277422 -0.05199248 0.54131391
v -0.58604171 -0.06788293 0.54977149
v -0.62214474 -0.03909759 0.52470429
v -0.65130859 0.18950909 0.36359507
v -0.62002890 0.19423325 0.34705753
v -0.63776742 0.17850121 0.37882710
v -0.68090522 0.16596683 0.34309272
v -0.61245401 0.20254102 0.31676188
v -0.63605033 0.21074683 0.35414784
v -0.60125360 0.19203087 0.33803352
v -0.63249670 0.19104219 0.36889204
v -0.61470767 0.21018538 0.35408613
v -0.60376309 0.22381314 0.33580128
v -0.61046245 0.21275022 0.33233159
v -0.63071415 0.21346721 0.34934972
v -0.63255116 0.22150503 0.37787692
v -0.61069401 0.20487308 0.36568231
v -0.63672814 0.20740791 0.37151750
v -0.66471947 0.16989755 0.33947592
v -0.65910089 0.15071004 0.34936269
v -0.63717462 0.16865712 0.36751062
v -0.63392718 0.17605874 0.37831127
v -0.66731328 0.16212927 0.35369613
v -0.66761989 0.17233043 0.32931634
v -0.65361060 0.17974815 0.29865592
v -0.68032598 0.15573698 0.31293609
v -0.64585678 0.18374439 0.30740810
v -0.62838047 0.20336231 0.34230079
v -0.63460442 0.21944622 0.37066360
v -0.62648451 0.24161320 0.32440040
v -0.60643039 0.21020327 0.34293270
v -0.63666339 0.19380112 0.36189106
v -0.61722077 0.19625325 0.37272338
v -0.63896921 0.24491540 0.33305659
v -0.62041549 0.22353466 0.33945174
v -0.63475816 0.21394280 0.36333781
v -0.65765897 0.21252380 0.35440474
v -0.63102060 0.21157346 0.38848061
v -0.64382011 0.19507764 0.38507312
v -0.65169415 0.21774871 0.39728081
v -0.63789782 0.21875012 0.38515478
v -0.63011624 0.17940905 0.37341356
v -0.65132031 0.19822493 0.36596989
v -0.65155133 0.17410384 0.37352926
v -0.65523300 0.22792018 0.37012032
v -0.63206314 0.19145358 0.38855503
v -0.64030961 0.21089982 0.36149636
v -0.63161406 0.18090322 0.38037800
v -0.64782028 0.20222510 0.36247473
v -0.62507162 0.19426233 0.37903300
v -0.61760152 0.22028739 0.38265772
v -0.61743185 0.21156827 0.37055465
v -0.59359623 0.21001560 0.37372404
v -0.63781901 0.22798350 0.35825842
v -0.61478087 0.22701626 0.36771198
v -0.61038959 0.21986044 0.39038893
v -0.62545919 0.17005634 0.36454385
v -0.63114218 0.17013661 0.34731136
v -0.61942895 0.17690240 0.36823833
v -0.66200145 0.13934091 0.36398602
v -0.61256417 0.22577189 0.40300108
v -0.57719622 0.20335560 0.41492574
v -0.58128880 0.22012776 0.42274974
v -0.60593049 0.22783976 0.38797383
v -0.63819911 0.25989148 0.39086435
v -0.59884617 0.20402117 0.38855303
v -0.60346602 0.18149557 0.39323261
v -0.59199709 0.19882691 0.39005664
v -0.59933089 0.17273028 0.38805703
v -0.64318774 0.16744958 0.35182185
v -0.62288537 0.17572772 0.38574566
v -0.60581944 0.16977321 0.40560470
v -0.63326927 0.27468007 0.43363854
v -0.65912379 0.25540035 0.37959591
v -0.66712060 0.24523729 0.38570863
v -0.61351150 -0.24650111 0.39754104
v -0.57310546 -0.23905168 0.37773387
v -0.58003856 -0.24921935 0.37793118
v -0.63732902 -0.14763433 0.40038545
v -0.65369098 -0.11763344 0.37706598
v -0.56624417 -0.24599020 0.36123596
v -0.56307194 -0.23420668 0.32986833
v -0.62884348 -0.07393676 0.38903043
v -0.64451115 -0.07968294 0.36737492
v -0.64101368 -0.10777615 0.39532155
v -0.61781751 -0.08536479 0.39945444
v -0.62433620 -0.03155450 0.40649477
v -0.65602908 -0.05314493 0.46565959
v -0.60256380 -0.09202291 0.46589639
v -0.60965317 -0.06113182 0.44342421
v -0.62481659 -0.07494315 0.49615032
v -0.60094082 -0.08488140 0.49553086
v -0.62303893 -0.07296156 0.45802096
v -0.60169766 -0.09969035 0.44645087
v -0.63816063 -0.09056332 0.48868369
v -0.61113208 -0.05058637 0.48666871
v -0.65336128 -0.08403910 0.47840459
v -0.60981411 -0.09772522 0.55933745
v -0.59823249 -0.08114822 0.58377100
v -0.61733287 0.14761881 0.48996378
v -0.60630876 0.11998258 0.45502529
v -0.60966712 0.13644652 0.50756283
v -0.62558609 0.08237926 0.46470567
v -0.66062770 -0.05423186 0.51894689
v -0.66837747 -0.03269872 0.53916879
v -0.62344985 0.26894251 0.50878771
v -0.57251797 -0.11085539 0.55390043
v -0.57444085 -0.09477327 0.56117745
v -0.55924948 -0.17630861 0.56474371
v -0.57693082 -0.15536482 0.55056564
v -0.53632014 -0.18862680 0.43816456
v -0.55263843 -0.17964043 0.47713484
v -0.53077970 -0.19867570 0.48302811
v -0.57028125 -0.20756045 0.47825630
v -0.56298694 -0.19501784 0.40758569
v -0.54639456 -0.16909988 0.44601732
v -0.51338805 -0.16189051 0.47887840
v -0.54502322 -0.22208320 0.54198094
v -0.56650555 -0.21843474 0.51420590
v -0.60792654 -0.10250140 0.47028755
v -0.58276101 -0.08693832 0.52578832
v -0.60422023 -0.10398945 0.50520117
v -0.59579252 -0.11159863 0.54175580
v -0.58661567 -0.10193134 0.50950231
v -0.58525999 -0.06421082 0.51915470
v -0.59313287 -0.08478426 0.52115018
v -0.59420048 -0.08497255 0.49825770
v -0.58045961 -0.08300715 0.52017057
v -0.57723858 -0.08722913 0.54719545
v -0.64007773 0.11233177 0.54461787
v -0.61359659 -0.17714123 0.52454700
v -0.58499626 -0.14913776 0.56033958
v -0.60706018 -0.13582175 0.52629118
v -0.61099811 -0.13631969 0.50012141
v -0.60992111 -0.16464410 0.48500480
v -0.60787108 -0.17827553 0.51346011
v -0.58604124 -0.20035489 0.51876589
v -0.59968988 -0.18813597 0.45703817
v -0.60381805 -0.20846083 0.49614822
v -0.62322500 -0.20887398 0.46013008
v -0.60873529 -0.17932047 0.44005020
v -0.63675156 -0.20079786 0.41093671
v -0.59898859 -0.25348282 0.38451223
v -0.62348230 -0.22742258 0.39996799
v -0.62058802 -0.21518960 0.38229362
v -0.64043396 -0.20726414 0.36200526
v -0.64516293 -0.19071855 0.41734921
v -0.60580525 -0.23307762 0.40806046
v -0.60771683 -0.24110068 0.37324386
v -0.59057554 -0.25983476 0.39763401
v -0.59911269 -0.22370532 0.42535455
v -0.61556813 -0.25126572 0.38867533
v -0.61208811 -0.21893855 0.40504248
v -0.60352130 -0.24682878 0.40225883
v -0.61320178 -0.22570740 0.40814276
v -0.57946025 -0.22972094 0.40438920
v -0.59250753 -0.22461267 0.42089855
v -0.57931724 -0.25296481 0.38902960
v -0.57688087 -0.25027553 0.37343087
v -0.57155503 -0.22957758 0.40594044
v -0.55274723 -0.21474024 0.36438159
v -0.56180674 -0.23875237 0.38541517
v -0.56071820 -0.23676823 0.40502967
v -0.58492078 -0.24894852 0.38626219
v -0.58968309 -0.25992744 0.39927057
v -0.58995673 -0.24296935 0.38232324
v -0.61688082 -0.21387660 0.47350143
v -0.58549386 -0.23061463 0.46359058
v -0.59943757 -0.24181029 0.44505402
v -0.55519827 -0.14585169 0.42558709
v -0.58692991 -0.23064403 0.46630016
v -0.57408681 -0.18904003 0.41774469
v -0.56999154 -0.16557810 0.39854557
v -0.57972945 -0.19486147 0.43914788
v -0.55681152 -0.19710103 0.35467484
v -0.55067191 -0.19887894 0.36398307
v -0.56010034 -0.19632209 0.35203092
v -0.58745767 -0.24234071 0.42280868
v -0.56805140 -0.23727401 0.51720066
v -0.57312680 -0.22447021 0.55315197
v -0.65333244 0.02423565 0.59615374
v -0.63155136 0.04188462 0.59181749
v -0.55777154 -0.24860762 0.39153345
v -0.54749847 -0.23812388 0.46771774
v -0.58355530 -0.24866287 0.39896327
v -0.58741843 -0.25680972 0.44192625
v -0.56490474 -0.23408097 0.47267543
v -0.60033204 -0.08878848 0.52280507
v -0.60817117 -0.05751360 0.55994613
v -0.65058307 -0.06319289 0.58457208
v -0.60067309 -0.08902740 0.56514357
v -0.67579985 -0.04309197 0.59303275
v -0.66083239 -0.08411798 0.58452941
v -0.64809361 -0.04748077 0.58604867
v -0.65159906 -0.06533879 0.59153816
v -0.66273286 -0.04933236 0.57622444
v -0.62819197 -0.07388303 0.58816760
v -0.65002478 -0.07219172 0.60771010
v -0.67184724 -0.00632860 0.60474879
v -0.65915559 -0.02434931 0.62512534
v -0.66252612 -0.05406098 0.56539327
v -0.65230336 -0.01238752 0.55208368
v -0.66497376 -0.01515212 0.52360549
v -0.55709862 -0.23415300 0.49246021
v -0.53834267 -0.20515164 0.46438537
v -0.53348715 -0.21307081 0.49065482
v -0.54647677 -0.22678453 0.49547091
v -0.56694605 -0.24117498 0.51271891
v -0.62362981 0.11407141 0.54918401
v -0.59183918 0.12032061 0.40697188
v -0.62635463 0.08029329 0.45220601
v -0.61861556 0.06644878 0.41605894
v -0.63159542 0.06166791 0.41279500
v -0.62295522 0.08030525 0.49969705
v -0.61523853 0.08596748 0.46970284
v -0.62745319 0.04612214 0.47527153
v -0.63183598 0.03294701 0.46886846
v -0.61263063 -0.06005973 0.43921519
v -0.61708846 0.00598927 0.43292381
v -0.65385954 0.03791849 0.41190506
v -0.63060892 0.00404124 0.41561990
v -0.65206830 0.01053463 0.47830875
v -0.64966497 -0.01323659 0.45524616
v -0.63233710 0.00769611 0.51609772
v -0.62294561 0.02714906 0.52880262
v -0.59531085 0.04836000 0.50735294
v -0.60693343 0.06864575 0.42791409
v -0.62332299 -0.00025633 0.40728135
v -0.64787256 -0.05394234 0.36733718
v -0.63562584 0.01088727 0.38498003
v -0.66728534 -0.01478472 0.36248543
v -0.63540425 0.12917306 0.33734042
v -0.62631711 0.18492014 0.37497459
v -0.63206293 0.06656468 0.52369888
v -0.62557501 0.10786546 0.50674585
v -0.61469217 0.26352651 0.40952177
v -0.60802608 0.26666505 0.47834647
v -0.59991271 0.19412381 0.41031262
v -0.58002625 0.19347502 0.39718125
v -0.58350903 0.23948984 0.42348601
v -0.58742811 -0.01182352 0.50316777
v -0.58548918 -0.01081519 0.51299980
v -0.59318691 -0.07705829 0.52172708
v -0.59995091 -0.06122254 0.52017635
v -0.58224083 -0.01855670 0.52355996
v -0.64979565 -0.19029284 0.31437437
v -0.64880844 -0.20530876 0.30598319
v -0.66859301 -0.20383375 0.24786346
v -0.66417563 -0.21170694 0.26842112
v -0.58058436 -0.12881656 0.53016130
v -0.57479062 -0.10906613 0.56224137
v -0.60076972 0.34662652 0.54226156
v -0.63902418 0.05068229 0.59628699
v -0.54934374 -0.24944445 0.51034294
v -0.58603488 0.62763280 0.48576835
v -0.54880920 -0.10461420 0.55470757
v -0.64318190 0.02590893 0.63398421
v -0.51252584 -0.23170883 0.51470205
v -0.53389266 -0.20969175 0.51395535
v -0.48863080 -0.15296564 0.50285281
v -0.56065919 -0.10669886 0.55306758
v -0.57799705 0.19017578 0.53225962
v -0.59491450 0.67893214 0.45137293
v -0.65123951 -0.00390670 0.64975628
v -0.42834813 0.88784781 0.21791254
v -0.52195435 -0.20749835 0.55711110
v -0.51380824 -0.23453618 0.54189108
v -0.60867071 -0.08210353 0.63758684
v -0.53272074 -0.13512991 0.58341889
v -0.62083612 0.40246041 0.52964040
v -0.55625001 0.26064647 0.51669592
v -0.52663257 -0.21389249 0.57609689
v -0.54901545 -0.19575589 0.56608875
v -0.49392718 -0.20870919 0.51458891
v -0.52324280 -0.15832799 0.51671517
v -0.61861710 0.54263030 0.51757728
v -0.58445278 -0.06689840 0.56235430
v -0.57316259 -0.07734828 0.57101420
v -0.57212341 0.75099770 0.42716703
v -0.57579359 0.26640977 0.51394210
v -0.55701188 -0.10176531 0.53823461
v -0.59270572 0.21907156 0.52563586
v -0.61813247 -0.06152300 0.63916214
v -0.49632225 0.86024605 0.29896691
v -0.50321885 0.83224273 0.35987079
v -0.62064896 0.29957550 0.52756427
v -0.61043452 -0.08728430 0.59224125
v -0.56997512 -0.09308158 0.58084368
v -0.60721937 0.22243785 0.39547136
v -0.57618450 -0.08169995 0.50764743
v -0.62909348 0.05663361 0.53566600
v -0.59018180 0.20867733 0.39143419
v -0.61488436 -0.09002502 0.49722882
v -0.63681601 0.13946011 0.52750241
v -0.57728230 0.18518614 0.46610612
v -0.65545793 -0.05580096 0.48254607
v -0.65164387 -0.06723865 0.45703834
v -0.64433277 -0.04159136 0.57958267
v -0.64657611 -0.02258356 0.57221463
v -0.66406553 -0.05491932 0.56437249
v -0.61892102 0.22432383 0.37568106
v -0.61058007 0.22142925 0.34877449
v -0.60784996 0.17676521 0.35859482
v -0.58852568 0.19517841 0.41016166
v -0.59118783 0.17228866 0.49466089
v -0.59092766 0.19276080 0.38779173
v -0.64681447 0.02455275 0.55955387
v -0.61686963 0.21640863 0.35730198
v -0.55938870 -0.09775610 0.53968534
v -0.65484327 -0.05037128 0.53615161
v -0.63735403 -0.06581237 0.55127067
v -0.57687562 -0.07789705 0.57857080
v -0.62295113 0.15047361 0.50181704
v -0.61677788 0.14020302 0.50853264
v -0.61797245 -0.08992295 0.58425206
v -0.63516634 -0.00656658 0.57826739
v -0.62253596 -0.07314934 0.63069675
v -0.64909463 -0.03087374 0.60091714
v -0.63253131 0.31918280 0.50040543
v -0.63080341 0.29345945 0.46512096
v -0.58860060 0.32799615 0.53173238
v -0.63583717 0.28253521 0.45373181
v -0.61604174 0.24496432 0.46016002
v -0.62631439 0.27423167 0.45808212
v -0.63350340 0.13899489 0.40185288
v -0.41728006 -0.09983898 0.61232816
v -0.46548910 -0.12403865 0.59414042
v -0.56380561 -0.11518919 0.57928307
v -0.58452696 0.24660130 0.46868801
v -0.59798520 0.19104447 0.42322146
v -0.58103769 0.19156320 0.44137084
v -0.59423653 0.22872757 0.46016707
v -0.64845005 0.10746996 0.34325029
v -0.62715680 -0.20605021 0.41108777
v -0.60145697 -0.20654979 0.38802204
v -0.62327195 -0.19016077 0.46768861
v -0.61882485 -0.19757508 0.42273031
v -0.61970356 -0.27074768 0.37310745
v -0.59136855 -0.14960188 0.51023383
v -0.57499615 -0.13851759 0.56756055
v -0.59517250 -0.15111833 0.49090837
v -0.60406104 -0.07853252 0.61937731
v -0.58360485 -0.06653470 0.62902032
v -0.43304479 0.22770500 0.53505811
v -0.57034268 0.05081956 0.61035000
v -0.49228822 -0.08555257 0.58883405
v -0.58845746 0.12279113 0.59692999
v -0.51885264 0.22529138 0.53400016
v -0.57340584 0.07970908 0.60538248
v -0.46254257 -0.07930655 0.60922528
v -0.57658558 -0.03774921 0.66607188
v -0.60763826 -0.01877480 0.66473207
v -0.58890337 -0.06657165 0.63793815
v -0.44052563 0.20598866 0.52955078
v -0.37928368 0.26191773 0.52392396
v -0.57193327 -0.03782027 0.65596449
v -0.40494989 0.25117592 0.55268064
v -0.52035086 -0.02816279 0.66633000
v -0.53094206 0.19757195 0.54610015
v -0.47307351 -0.04469955 0.64802349
v -0.44294695 0.23585961 0.54877892
v -0.40560424 0.22383373 0.53728135
v -0.39227552 0.24105403 0.54149800
v -0.54684053 -0.03337702 0.65544898
v -0.55756799 -0.06135608 0.65065279
v -0.48461839 0.22263983 0.51074182
v -0.53993973 0.18961073 0.54145663
v -0.56293834 0.15484793 0.58808624
v -0.56425470 -0.07565975 0.59918202
v -0.58285293 0.02127545 0.64738714
v -0.52970189 -0.07963085 0.56122763
v -0.42184067 0.32578621 0.60506824
v -0.39803115 0.29785621 0.60604584
v -0.56539088 0.33589391 0.55328412
v -0.52452397 0.32432462 0.55996377
v -0.38238750 0.23992813 0.59638892
v -0.40422406 0.25687055 0.60265624
v -0.39562900 0.21347706 0.60199641
v -0.38910815 0.25441972 0.62133952
v -0.39402657 0.28605221 0.59540632
v -0.43195758 0.32736012 0.61827762
v -0.38206843 0.24494009 0.56777555
v -0.34772295 0.27079378 0.57267086
v -0.47800128 0.40931127 0.62258972
v -0.25296601 0.43949707 0.61532642
v -0.21766112 0.41916287 0.61339057
v -0.50522200 0.37139972 0.60596456
v -0.45323744 0.58349588 0.58555741
v -0.23862340 0.91651160 0.34656580
v -0.44481309 0.50733464 0.59287067
v -0.36082089 0.46425454 0.61650264
v -0.28123381 0.87713960 0.40240477
v -0.29923394 0.46235826 0.65933414
v -0.16760437 0.23906158 0.60082297
v -0.16120193 0.27606787 0.59878502
v -0.54058147 0.44820492 0.57334717
v -0.51072997 0.31572308 0.57968595
v -0.39286287 0.70332827 0.56146986
v -0.49252351 0.26322514 0.51607952
v -0.52059848 0.30022526 0.54231166
v -0.37756151 0.74334826 0.53556691
v -0.33849770 0.79031030 0.47317159
v -0.20576324 0.95945741 0.28744525
v -0.18722243 0.37599393 0.62243745
v -0.16923493 0.27473333 0.60390417
v -0.41308743 0.49216103 0.61557929
v -0.51616764 0.24491962 0.52158848
v -0.45000960 0.17617698 0.53923807
v -0.31693469 0.84683410 0.44168889
v -0.47730765 0.20227126 0.52874623
v -0.48393157 0.22512471 0.51435239
v -0.49764850 0.33034945 0.59261442
v -0.46656488 0.47563431 0.59988655
v -0.44856922 -0.15275113 0.62252672
v -0.50804092 -0.11036591 0.57280617
v -0.51214226 -0.12663212 0.59575010
v -0.48110808 -0.12729181 0.61639721
v -0.30317213 0.25385812 0.52591192
v -0.60860045 0.22321987 0.26527076
v -0.38749857 0.25335420 0.57418786
v -0.38235528 0.25036670 0.55479897
v -0.37209745 0.26681783 0.59369808
v -0.40039129 0.24605557 0.59257144
v -0.40546367 0.24997724 0.58774271
v -0.38744124 0.25042826 0.59295685
v -0.36981055 0.26522078 0.55896842
v -0.41252693 0.25996808 0.54549970
v -0.37803265 0.26725425 0.55955033
v -0.38523404 0.26518705 0.57790288
v -0.38317033 0.27205514 0.58952733
v -0.35860930 0.27396136 0.55875267
v -0.38863363 0.24306681 0.60112257
v -0.38155968 0.27670482 0.58169451
v -0.36916365 0.28971350 0.58499669
v -0.38343029 0.25563308 0.57778067
v -0.38739388 0.26878793 0.57339350
v -0.38677731 0.30324190 0.58354474
v -0.39828205 0.27113928 0.57987709
v -0.36227827 0.26051144 0.60658519
v -0.37037389 0.25823766 0.60568732
v -0.38037758 0.31206164 0.57856249
v -0.37216326 0.27587138 0.59024094
v -0.36373403 0.25981510 0.61321019
v -0.36060287 0.30172205 0.59830266
v -0.34769066 0.30555129 0.59392065
v -0.33684496 0.28010132 0.60688065
v -0.36342132 0.28058773 0.59927258
v -0.35391853 0.27601508 0.60121808
v -0.37317456 0.28126413 0.61087897
v -0.34119897 0.29941029 0.60963247
v -0.32728186 0.29156036 0.61267731
v -0.37576975 0.26109170 0.62007037
v -0.34627293 0.27168641 0.60816725
v -0.35531495 0.27478294 0.59161266
v -0.34960027 0.27187459 0.60236033
v -0.37218202 0.26266141 0.63208115
v -0.36472540 0.26593731 0.60491916
v -0.33222633 0.26225191 0.61534471
v -0.37190261 0.25261749 0.58965562
v -0.33181358 0.26536934 0.60741122
v -0.33919006 0.26251315 0.63841104
v -0.33844278 0.26255514 0.61522086
v -0.30215453 0.27944973 0.61265888
v -0.35677221 0.24676238 0.61295946
v -0.34821634 0.24894985 0.61948324
v -0.33476866 0.26049202 0.61896285
v -0.34121759 0.22047628 0.61169603
v -0.36317247 0.25521501 0.62551502
v -0.34233797 0.22496669 0.60931851
v -0.34514533 0.25230100 0.61170749
v -0.35700729 0.23075966 0.61060352
v -0.38602348 0.24515271 0.60003901
v -0.33964961 0.24057235 0.59998976
v -0.34537625 0.23802537 0.62212512
v -0.34739419 0.20712335 0.64532463
v -0.35304847 0.24519095 0.63186265
v -0.36815819 0.22875582 0.60038819
v -0.34027501 0.22704175 0.61723928
v -0.34301136 0.24368766 0.61434833
v -0.38347835 0.24270101 0.58745795
v -0.35812888 0.23526980 0.63074151
v -0.35214944 0.20858471 0.60591046
v -0.35679836 0.24457227 0.61333220
v -0.34559785 0.23690292 0.58726260
v -0.35551699 0.21603874 0.58923953
v -0.37548206 0.23909387 0.58003359
v -0.38708830 0.24854365 0.59174540
v -0.35943945 0.22948490 0.60260756
v -0.37580654 0.23496364 0.61694320
v -0.34965039 0.23942028 0.61608315
v -0.38459972 0.22268827 0.59006082
v -0.39280173 0.24466635 0.60393984
v -0.36487315 0.20827147 0.59055770
v -0.36351663 0.21817413 0.59310332
v -0.35769713 0.23080177 0.58873912
v -0.33858458 0.24371323 0.59839745
v -0.36156918 0.23038418 0.58681696
v -0.35543838 0.19618791 0.56436581
v -0.34408308 0.22398878 0.58787907
v -0.37129359 0.22810603 0.57103327
v -0.37716992 0.23056253 0.60689035
v -0.36910780 0.23813956 0.59120770
v -0.38068313 0.21391186 0.60051339
v -0.37223843 0.21995109 0.58038637
v -0.35931106 0.25910684 0.60008783
v -0.36920067 0.23536917 0.60137386
v -0.37098148 0.24392420 0.56133056
v -0.37680982 0.23563489 0.57985287
v -0.40115202 0.22867177 0.60175203
v -0.38757695 0.25104183 0.59010602
v -0.37094057 0.23455186 0.57027037
v -0.38221604 0.23009167 0.55299981
v -0.40128576 0.28666472 0.58620449
v -0.38615347 0.22093223 0.56984880
v -0.39005818 0.24645407 0.58337956
v -0.40075335 0.24625982 0.57999320
v -0.40259807 0.24647144 0.53446991
v -0.40937619 0.22984137 0.53353906
v -0.38032869 0.26932185 0.48083153
v -0.35191277 0.25826918 0.46432296
v -0.36321081 0.27405165 0.45409276
v -0.35833337 0.24857962 0.43650780
v -0.30544536 0.27089016 0.46663539
v -0.27694133 0.25219330 0.42494973
v -0.29984504 0.26751625 0.41849450
v -0.28083366 0.27500104 0.44810736
v -0.39842030 0.24525072 0.57892573
v -0.37598207 0.24787263 0.51565770
v -0.34930569 0.27751807 0.46166184
v -0.32807307 0.28203010 0.46655378
v -0.29666033 0.27262837 0.44356769
v -0.30436618 0.29827543 0.46056829
v -0.27841424 0.28685979 0.46915298
v -0.24276230 0.25917159 0.46283943
v -0.38527350 0.27723035 0.55559877
v -0.41784972 0.27186075 0.52141428
v -0.39624442 0.29228182 0.52390572
v -0.39075636 0.27407135 0.48617603
v -0.34610439 0.28409535 0.46962178
v -0.36753690 0.27853212 0.44999042
v -0.31639923 0.27833495 0.44036022
v -0.31666421 0.28148920 0.44295037
v -0.27342385 0.27725108 0.45060309
v -0.26162360 0.25635207 0.47114473
v -0.40500293 0.28991288 0.53943264
v -0.40745743 0.26368114 0.53348367
v -0.38660799 0.27394809 0.54064587
v -0.38804609 0.28063108 0.53055016
v -0.36280682 0.31682589 0.43555543
v -0.31941170 0.29998842 0.46342472
v -0.32826184 0.28087879 0.46904555
v -0.31172073 0.29553415 0.44688418
v -0.28718901 0.27823435 0.47044435
v -0.38901826 0.27912987 0.55886915
v -0.38330077 0.30813008 0.55034324
v -0.40158450 0.32827224 0.51890711
v -0.38412643 0.30244735 0.54075727
v -0.38385217 0.28728339 0.49850040
v -0.36674693 0.31058652 0.48584764
v -0.35894250 0.29252124 0.45869774
v -0.34858688 0.30157537 0.46778886
v -0.34195229 0.32589678 0.44131346
v -0.27372485 0.29265299 0.47748269
v -0.36922126 0.28218983 0.56261267
v -0.37460710 0.31931635 0.55167169
v -0.38093837 0.33565102 0.51951353
v -0.36565104 0.32526982 0.49717054
v -0.35189009 0.32528427 0.51804763
v -0.32888246 0.32239812 0.47206007
v -0.31580112 0.30216374 0.47632017
v -0.29017415 0.30223706 0.46774565
v -0.28333664 0.29897295 0.46803944
v -0.26261841 0.27923171 0.47445789
v -0.38245196 0.30971316 0.57430206
v -0.36328568 0.30854267 0.56480908
v -0.38262564 0.33136262 0.54571822
v -0.36343245 0.33399466 0.53201409
v -0.34516343 0.31850014 0.50266534
v -0.32143399 0.34875758 0.51114681
v -0.28954345 0.32439751 0.47859725
v -0.27576997 0.28654172 0.43269594
v -0.36445864 0.30479135 0.58188495
v -0.36944614 0.32198296 0.58375636
v -0.36384137 0.31797294 0.56930994
v -0.35000804 0.35678951 0.53958591
v -0.34689092 0.32447700 0.53483680
v -0.30950895 0.33373101 0.52093204
v -0.32042697 0.34660729 0.49063965
v -0.32308178 0.33159193 0.49684853
v -0.28206433 0.31183782 0.46416426
v -0.27694052 0.28232894 0.45336374
v -0.37264242 0.28710709 0.58435113
v -0.35289079 0.31178521 0.59372391
v -0.35190148 0.32197353 0.55928714
v -0.34772740 0.31808151 0.56960806
v -0.35808185 0.32111368 0.53995391
v -0.34734092 0.34311010 0.52317032
v -0.31711377 0.34982901 0.48767779
v -0.30563030 0.34306951 0.51777923
v -0.28205263 0.31476821 0.49741739
v -0.26400269 0.33869770 0.50481055
v -0.27107323 0.31466392 0.47519759
v -0.27588365 0.29132835 0.48523246
v -0.38302279 0.32855299 0.57683473
v -0.32634432 0.32648399 0.58101152
v -0.32032360 0.32835830 0.59576102
v -0.34114843 0.33095665 0.54743608
v -0.30760833 0.34103616 0.55308774
v -0.26907125 0.34210584 0.51711976
v -0.25510908 0.31030893 0.47490619
v -0.27601446 0.30682103 0.46986050
v -0.27310362 0.27201507 0.46815083
v -0.35094748 0.29397110 0.58561213
v -0.32956068 0.29310612 0.58313720
v -0.31379385 0.33231438 0.59342576
v -0.30110388 0.34538191 0.55333368
v -0.29292321 0.34329126 0.54652937
v -0.30449350 0.32516557 0.49774036
v -0.28456285 0.31304971 0.50541662
v -0.27073550 0.33162464 0.51459232
v -0.27260328 0.30248459 0.49623405
v -0.26812459 0.29037741 0.45647866
v -0.25079894 0.28394107 0.45999760
v -0.36427478 0.27965906 0.60800540
v -0.34402904 0.28937069 0.59558321
v -0.30571672 0.33808908 0.60335228
v -0.30490393 0.33151580 0.58267830
v -0.26794708 0.33968735 0.53184623
v -0.27830848 0.32474861 0.54088928
v -0.26928898 0.31446075 0.53184688
v -0.24049279 0.30468994 0.50472591
v -0.24156309 0.30063481 0.50543794
v -0.27256133 0.29075055 0.49130046
v -0.23820680 0.29162276 0.45424110
v -0.36017902 0.27751319 0.61784413
v -0.32093339 0.31176636 0.61432919
v -0.32458404 0.30300519 0.59052608
v -0.28523961 0.30428145 0.58807255
v -0.27663511 0.33801785 0.56092663
v -0.24900928 0.30415174 0.53874225
v -0.25505705 0.30566085 0.50055347
v -0.25847521 0.28201007 0.47888256
v -0.24068807 0.26608480 0.47858703
v -0.32577617 0.26784933 0.58520818
v -0.31730306 0.27020998 0.60117940
v -0.31077334 0.30147522 0.60383039
v -0.30536945 0.31640647 0.60389028
v -0.26247254 0.29750923 0.59289673
v -0.27050461 0.31814535 0.57994671
v -0.25545277 0.33641891 0.55655771
v -0.23836085 0.30367820 0.50965334
v -0.23512250 0.27147056 0.51651545
v -0.26619446 0.28179537 0.49026958
v -0.25887395 0.26967244 0.49161341
v -0.30235363 0.28693884 0.61640625
v -0.32503042 0.27158366 0.62910096
v -0.29203434 0.30306960 0.62363096
v -0.27325165 0.28459839 0.59634978
v -0.29046777 0.29502933 0.59668387
v -0.26069187 0.28345070 0.58432209
v -0.23820697 0.30025391 0.53072302
v -0.24313936 0.29384920 0.56201985
v -0.24121694 0.30338351 0.53141349
v -0.23586207 0.29843801 0.50207892
v -0.24051980 0.28238400 0.49836903
v -0.32969035 0.27154843 0.59397826
v -0.27527126 0.29061579 0.61019671
v -0.26791850 0.27335287 0.59014235
v -0.23797619 0.29013467 0.56731671
v -0.23622366 0.29677708 0.54250212
v -0.25119049 0.29532758 0.52946551
v -0.22580583 0.27290775 0.50951058
v -0.21801552 0.27737224 0.49006405
v -0.31351016 0.25682047 0.61471088
v -0.26711504 0.25089020 0.59957747
v -0.24743032 0.27431962 0.58730977
v -0.24868052 0.24487254 0.58505816
v -0.24790869 0.26382909 0.55479055
v -0.22632969 0.26935192 0.52963713
v -0.23529064 0.29413202 0.53771475
v -0.24348412 0.27612496 0.47139524
v -0.24709252 0.27571839 0.47508718
v -0.30377482 0.25810517 0.62346185
v -0.31128637 0.24066254 0.61737004
v -0.27383147 0.22764074 0.59515924
v -0.23332751 0.25880172 0.59583920
v -0.23545300 0.27215991 0.53293649
v -0.24761389 0.27743352 0.56656628
v -0.22765649 0.25210451 0.51704021
v -0.23591463 0.25655463 0.51187568
v -0.21742317 0.27271943 0.50384690
v -0.23837084 0.26362318 0.48198591
v -0.33203420 0.26858762 0.59647524
v -0.29697395 0.24676768 0.62395606
v -0.30044342 0.22193085 0.60496336
v -0.27875570 0.22507964 0.59621772
v -0.25474967 0.24792220 0.56198287
v -0.22628932 0.23431012 0.57080991
v -0.23858333 0.26787677 0.52948951
v -0.21733897 0.23757543 0.53364730
v -0.21450301 0.24455307 0.53189965
v -0.21710616 0.24433360 0.53012257
v -0.22536369 0.25365232 0.49403467
v -0.25787643 0.26474483 0.48888106
v -0.30115441 0.22835143 0.60493167
v -0.30594080 0.21035035 0.60427437
v -0.27692192 0.21248078 0.59348983
v -0.28539249 0.22532166 0.59141662
v -0.27599186 0.23295680 0.59041679
v -0.24233434 0.21807687 0.55860189
v -0.24887226 0.23775864 0.56340129
v -0.22225546 0.23330972 0.53521685
v -0.23022420 0.26369230 0.49347588
v -0.24218105 0.24225522 0.47488752
v -0.24600428 0.27183821 0.46466603
v -0.30570647 0.22396436 0.61196812
v -0.27346389 0.19882552 0.61481316
v -0.26689301 0.21237728 0.55231682
v -0.22799792 0.21935758 0.52001176
v -0.25087452 0.22903362 0.52874990
v -0.24487824 0.25139574 0.46683797
v -0.34870033 0.21208563 0.58413063
v -0.32789957 0.22065954 0.59966822
v -0.24840155 0.20197039 0.52842148
v -0.23676260 0.23530664 0.49848813
v -0.25806891 0.22153034 0.47978058
v -0.24822624 0.23536567 0.47319578
v -0.25364088 0.26504983 0.48285544
v -0.26848145 0.26603306 0.47083036
v -0.24233133 0.21944342 0.47380103
v -0.34401485 0.19529403 0.58768444
v -0.25974540 0.23105477 0.47793914
v -0.25383182 0.23187413 0.46940562
v -0.24906834 0.24361047 0.47406477
v -0.26680672 0.19582337 0.45201459
v -0.29991620 0.25264236 0.46939029
v -0.37535587 0.20027395 0.57065483
v -0.28476249 0.21923881 0.46569676
v -0.28072955 0.25131075 0.47608305
v -0.26940816 0.27572900 0.49369987
v -0.36092272 0.22432103 0.56229538
v -0.29789817 0.19210197 0.45907182
v -0.27209289 0.21828749 0.44089138
v -0.25533250 0.26026979 0.47864388
v -0.28510562 0.26093097 0.45265284
v -0.38358186 0.22349971 0.58312982
v -0.38846370 0.20231146 0.53657164
v -0.31404473 0.19656148 0.45676548
v -0.28072906 0.22808431 0.45791229
v -0.27535088 0.24981885 0.47402959
v -0.28289963 0.23345238 0.46722916
v -0.37897445 0.23828888 0.57043321
v -0.36694409 0.22076951 0.53934904
v -0.33364252 0.19667176 0.46188950
v -0.31719696 0.21475328 0.46833882
v -0.31312885 0.24760562 0.44122788
v -0.28668352 0.22906977 0.46976690
v -0.28929806 0.25384016 0.41670559
v -0.27959734 0.27502984 0.46212537
v -0.39064904 0.23993605 0.58737548
v -0.40648130 0.22333975 0.53808201
v -0.38007668 0.20942343 0.49457860
v -0.40177345 0.22482112 0.50337882
v -0.35898996 0.19878800 0.47128639
v -0.35980940 0.23110349 0.47077121
v -0.34402603 0.21222922 0.46084690
v -0.33417083 0.24000885 0.47416223
v -0.31251964 0.22188385 0.47890332
v -0.29165210 0.24889494 0.45155065
v -0.39515254 0.23621092 0.54473487
v -0.41493341 0.22447384 0.52465776
v -0.39198862 0.23437312 0.51587892
v -0.41091731 0.22011465 0.48987735
v -0.35718392 0.23344806 0.48633030
v -0.35178270 0.23546770 0.43709310
v -0.29596305 0.24714834 0.44666903
v -0.31022425 0.25191189 0.44425635
v -0.27265295 0.24613469 0.44675719
v -0.27953032 0.26809304 0.46246082
v -0.64714409 0.25201446 0.35304147
v -0.66061635 0.24552097 0.35364066
v -0.65046083 0.22084554 0.34371722
v -0.66664644 0.20770133 0.36544635
v -0.63870806 0.23714425 0.35775225
v -0.63694404 0.19789609 0.36658907
v -0.67890116 0.21395720 0.35227440
v -0.63973694 0.21958756 0.36174703
v -0.66345276 0.19789622 0.33961740
v -0.64503433 0.20003032 0.33254453
v -0.64487168 0.18665317 0.34183641
v -0.66012797 0.18164103 0.35309852
v -0.67001512 0.17366844 0.33413941
v -0.66739084 0.16663471 0.35319508
v -0.64835473 0.27741584 0.26803395
v -0.62446775 0.27866334 0.23684912
v -0.65445645 0.31118123 0.22398465
v -0.62807249 0.29722629 0.24753130
v -0.61536531 0.26989779 0.23206950
v -0.61530171 0.29945220 0.23722312
v -0.65230905 0.28578400 0.30601908
v -0.66298667 0.31024471 0.28566602
v -0.64117513 0.30617614 0.25081159
v -0.62755023 0.29060103 0.26336752
v -0.59955934 0.28408110 0.21550066
v -0.65561203 0.27946666 0.30528115
v -0.62234308 0.29023308 0.29493644
v -0.64493292 0.30460619 0.31710760
v -0.60773795 0.29009357 0.25673842
v -0.58114451 0.28070991 0.25173687
v -0.58062773 0.29842642 0.23864769
v -0.66817764 0.27476118 0.33797988
v -0.64538284 0.29622483 0.32751879
v -0.62268738 0.29422942 0.32780819
v -0.63314084 0.31927752 0.32342488
v -0.60556147 0.28997178 0.29325591
v -0.63439669 0.29797361 0.27480375
v -0.60200726 0.30092110 0.26992442
v -0.55632767 0.28422019 0.21925673
v -0.60186930 0.27084800 0.23815104
v -0.64532465 0.25829028 0.33364100
v -0.65731090 0.26706302 0.33966005
v -0.63069078 0.28049522 0.35727658
v -0.62507308 0.29305303 0.33835745
v -0.59032248 0.28817285 0.28107844
v -0.59601181 0.29798625 0.27793521
v -0.56996468 0.29747101 0.27350795
v -0.57868285 0.31067255 0.27701560
v -0.55755740 0.26755728 0.23584467
v -0.65776186 0.26295520 0.33481024
v -0.62967419 0.26796400 0.36502910
v -0.62694814 0.28276944 0.32873190
v -0.55708770 0.30069862 0.27213851
v -0.58185247 0.28877623 0.27113940
v -0.55940150 0.28162310 0.25192737
v -0.56413900 0.27048720 0.23656354
v -0.64526466 0.25044151 0.34885647
v -0.61773598 0.23939717 0.35515553
v -0.62670959 0.26723255 0.35606865
v -0.59997658 0.27665515 0.34911289
v -0.59042243 0.26997564 0.34161399
v -0.56915217 0.28621882 0.31926356
v -0.55769664 0.25096187 0.27506076
v -0.55920180 0.28318314 0.28497621
v -0.55302681 0.25201451 0.26156683
v -0.63067600 0.24752705 0.34470482
v -0.64143835 0.23417552 0.34005142
v -0.60195039 0.25482407 0.37604434
v -0.58062322 0.26811712 0.33629231
v -0.58125262 0.26483236 0.32069717
v -0.57439676 0.25447796 0.31726962
v -0.55509628 0.24309227 0.27570208
v -0.54204332 0.24125726 0.28222398
v -0.55998927 0.26345137 0.25211209
v -0.56427121 0.24301630 0.22960064
v -0.64374121 0.23882639 0.35538937
v -0.63024203 0.23951256 0.33861605
v -0.58652872 0.24729633 0.33919467
v -0.55520512 0.24600263 0.31751069
v -0.53365283 0.25731314 0.30338053
v -0.54866168 0.24333555 0.29320789
v -0.55733934 0.26838914 0.29202407
v -0.57244865 0.23346088 0.26068307
v -0.55570755 0.21645210 0.25385608
v -0.65191182 0.22890821 0.36071098
v -0.57372831 0.21624378 0.37022257
v -0.59518412 0.24683852 0.35444233
v -0.55877043 0.21773408 0.34435988
v -0.54041667 0.21258780 0.27462972
v -0.55084221 0.22334177 0.28663975
v -0.54119936 0.23758515 0.25585488
v -0.53442340 0.22637791 0.22783834
v -0.58104341 0.23874148 0.22357026
v -0.65763771 0.20084978 0.34994269
v -0.61289589 0.18552136 0.35012109
v -0.59654337 0.21723728 0.36249502
v -0.56699431 0.20171607 0.34016927
v -0.56601443 0.23254401 0.34502167
v -0.56648047 0.20087754 0.33178365
v -0.53724874 0.20761177 0.27133774
v -0.55351553 0.22970575 0.26005853
v -0.53598870 0.24300621 0.23509818
v -0.62266239 0.21573387 0.37176850
v -0.58563690 0.20525365 0.36071486
v -0.55552697 0.19423831 0.32466700
v -0.52180774 0.19708605 0.29543514
v -0.53385655 0.19984475 0.27147615
v -0.56121797 0.21195037 0.25260387
v -0.52726815 0.20899583 0.22807415
v -0.56043076 0.20600856 0.24468783
v -0.64819231 0.21327944 0.35808928
v -0.58404683 0.18526110 0.35713458
v -0.60859978 0.17743651 0.32474561
v -0.55295475 0.18279762 0.32512519
v -0.56174519 0.17142342 0.29731319
v -0.53226511 0.18990054 0.30517575
v -0.54903082 0.19100209 0.26741728
v -0.54770741 0.19280436 0.25395573
v -0.55687306 0.19539766 0.26083515
v -0.54163288 0.21167102 0.22135049
v -0.66099599 0.19461394 0.33931562
v -0.60450563 0.15950062 0.34989755
v -0.58540985 0.16511442 0.35956512
v -0.57671621 0.18192514 0.31686974
v -0.56032710 0.18314721 0.31203690
v -0.53683417 0.17801698 0.26435517
v -0.54934438 0.19942887 0.27267778
v -0.53950825 0.18395545 0.25231209
v -0.58319413 0.17846854 0.23511661
v -0.65334377 0.15825112 0.35157898
v -0.62929983 0.16172786 0.31468641
v -0.61330777 0.15946592 0.34332851
v -0.59394931 0.15639700 0.32416252
v -0.58791191 0.15483431 0.29465527
v -0.57406555 0.16236223 0.29443676
v -0.56110350 0.15686921 0.27792895
v -0.55226886 0.14935990 0.25153268
v -0.55960536 0.15705354 0.26883864
v -0.56468791 0.16098660 0.24031420
v -0.58321749 0.20944261 0.23257076
v -0.64470997 0.18094422 0.33893456
v -0.65443178 0.17438615 0.32807280
v -0.63892995 0.13182650 0.34121618
v -0.62070217 0.14610235 0.29408026
v -0.59621643 0.14677524 0.32118671
v -0.59236272 0.13831105 0.29847325
v -0.59669271 0.13311732 0.27255905
v -0.56225222 0.17101888 0.26134016
v -0.56745956 0.16788129 0.24787871
v -0.56873319 0.18165882 0.23241727
v -0.56407114 0.20216048 0.23040362
v -0.66559789 0.17946953 0.32900232
v -0.63060826 0.14087870 0.30763340
v -0.64549393 0.15883328 0.32497089
v -0.60412997 0.14610627 0.30122225
v -0.60597324 0.14930726 0.27900922
v -0.60083749 0.15778913 0.27418510
v -0.57534531 0.15057393 0.24831955
v -0.56946527 0.17345676 0.21712615
v -0.65448058 0.13564572 0.32153419
v -0.65572596 0.12733277 0.28727435
v -0.62865510 0.12712623 0.30941463
v -0.59166746 0.11329266 0.25541920
v -0.58884169 0.13283248 0.24188250
v -0.58460251 0.14921002 0.23158224
v -0.57528596 0.16212413 0.22279383
v -0.66562458 0.14915186 0.28029140
v -0.62835602 0.16287084 0.29788092
v -0.63359182 0.14355543 0.25658654
v -0.60739422 0.13190196 0.22994276
v -0.59676543 0.14700960 0.23867766
v -0.65400926 0.14836195 0.27669536
v -0.65737223 0.15261388 0.26849779
v -0.64035671 0.16392208 0.25123873
v -0.62832743 0.14214988 0.24757627
v -0.62222243 0.14488699 0.23687465
v -0.63843136 0.16449847 0.22980925
